<svg version="1.1" viewBox="0.0 0.0 658.1312335958005 385.2834645669291" fill="none" stroke="none" stroke-linecap="square" stroke-miterlimit="10" xmlns:xlink="http://www.w3.org/1999/xlink" xmlns="http://www.w3.org/2000/svg"><clipPath id="p.0"><path d="m0 0l658.1312 0l0 385.28348l-658.1312 0l0 -385.28348z" clip-rule="nonzero"/></clipPath><g clip-path="url(#p.0)"><path fill="#000000" fill-opacity="0.0" d="m0 0l658.1312 0l0 385.28348l-658.1312 0z" fill-rule="evenodd"/><path fill="#000000" fill-opacity="0.0" d="m175.77953 -65.53094l356.4724 0l0 446.23624l-356.4724 0z" fill-rule="evenodd"/><path fill="#000000" d="m184.18578 327.46906l109.968765 -286.32812l40.828125 0l117.1875 286.32812l-43.171875 0l-33.390625 -86.71875l-119.73439 0l-31.4375 86.71875l-40.25 0zm82.625015 -117.578125l97.078125 0l-29.890625 -79.296875q-13.671875 -36.140617 -20.3125 -59.374992q-5.46875 27.53125 -15.421875 54.6875l-31.453125 83.98437z" fill-rule="nonzero"/></g></svg>